<mxfile host="app.diagrams.net" modified="2020-08-28T06:06:05.038Z" agent="5.0 (Windows NT 10.0; Win64; x64) AppleWebKit/537.36 (KHTML, like Gecko) Chrome/84.0.4147.125 Safari/537.36" etag="OIsLG-tYzqCAMgqzKOQL" version="13.6.5" type="github">
  <diagram id="rdjZZJb6fHmTa3Si16gc" name="第 1 页">
    <mxGraphModel dx="1422" dy="772" grid="1" gridSize="10" guides="1" tooltips="1" connect="1" arrows="1" fold="1" page="1" pageScale="1" pageWidth="827" pageHeight="1169" math="0" shadow="0">
      <root>
        <mxCell id="0" />
        <mxCell id="1" parent="0" />
        <mxCell id="ntKcnVGJofI-TD8WBHXp-88" value="" style="rounded=1;whiteSpace=wrap;html=1;fillColor=#fff2cc;gradientColor=#ffd966;strokeColor=#d6b656;" vertex="1" parent="1">
          <mxGeometry x="656" y="625" width="150" height="150" as="geometry" />
        </mxCell>
        <mxCell id="ntKcnVGJofI-TD8WBHXp-78" value="" style="rounded=1;whiteSpace=wrap;html=1;gradientColor=#ea6b66;fillColor=#f8cecc;strokeColor=#b85450;" vertex="1" parent="1">
          <mxGeometry x="416" y="460" width="220" height="380" as="geometry" />
        </mxCell>
        <mxCell id="ntKcnVGJofI-TD8WBHXp-76" value="" style="rounded=1;whiteSpace=wrap;html=1;gradientColor=#b3b3b3;fillColor=#f5f5f5;strokeColor=#666666;" vertex="1" parent="1">
          <mxGeometry x="641" y="340" width="230" height="230" as="geometry" />
        </mxCell>
        <mxCell id="ntKcnVGJofI-TD8WBHXp-68" value="&lt;b&gt;经营好初始阶段才是能有这可持续性的&lt;br&gt;后续未来！&lt;/b&gt;" style="rounded=1;whiteSpace=wrap;html=1;gradientColor=#ffa500;fillColor=#ffcd28;strokeColor=#d79b00;" vertex="1" parent="1">
          <mxGeometry x="186" y="820" width="230" height="120" as="geometry" />
        </mxCell>
        <mxCell id="UjHAD5HHXeY4PYX_dFjO-1" value="&lt;span style=&quot;color: rgb(26 , 26 , 26) ; font-family: , &amp;#34;blinkmacsystemfont&amp;#34; , &amp;#34;helvetica neue&amp;#34; , &amp;#34;pingfang sc&amp;#34; , &amp;#34;microsoft yahei&amp;#34; , &amp;#34;source han sans sc&amp;#34; , &amp;#34;noto sans cjk sc&amp;#34; , &amp;#34;wenquanyi micro hei&amp;#34; , sans-serif ; font-size: medium ; background-color: rgb(255 , 255 , 255)&quot;&gt;&lt;b&gt;智能家居（smart home）&lt;/b&gt;&lt;br&gt;&amp;nbsp; &amp;nbsp; &amp;nbsp; &amp;nbsp;&lt;/span&gt;&lt;font style=&quot;font-size: 12px&quot;&gt;&lt;span style=&quot;color: rgb(26 , 26 , 26) ; background-color: rgb(255 , 255 , 255)&quot;&gt;是以住宅为平台，利用&lt;/span&gt;&lt;a href=&quot;https://link.zhihu.com/?target=https%3A//baike.baidu.com/item/%25E7%25BB%25BC%25E5%2590%2588%25E5%25B8%2583%25E7%25BA%25BF&quot; class=&quot; wrap external&quot; target=&quot;_blank&quot; style=&quot;cursor: pointer ; border-bottom: 1px solid ; background-color: rgb(255 , 255 , 255)&quot;&gt;综合布线&lt;/a&gt;&lt;span style=&quot;color: rgb(26 , 26 , 26) ; background-color: rgb(255 , 255 , 255)&quot;&gt;技术、&lt;/span&gt;&lt;a href=&quot;https://link.zhihu.com/?target=https%3A//baike.baidu.com/item/%25E7%25BD%2591%25E7%25BB%259C%25E9%2580%259A%25E4%25BF%25A1/9636548&quot; class=&quot; wrap external&quot; target=&quot;_blank&quot; style=&quot;cursor: pointer ; border-bottom: 1px solid ; background-color: rgb(255 , 255 , 255)&quot;&gt;网络通信&lt;/a&gt;&lt;span style=&quot;color: rgb(26 , 26 , 26) ; background-color: rgb(255 , 255 , 255)&quot;&gt;技术、&amp;nbsp;&lt;/span&gt;&lt;a href=&quot;https://link.zhihu.com/?target=https%3A//baike.baidu.com/item/%25E5%25AE%2589%25E5%2585%25A8%25E9%2598%25B2%25E8%258C%2583%25E6%258A%2580%25E6%259C%25AF/11054648&quot; class=&quot; wrap external&quot; target=&quot;_blank&quot; style=&quot;cursor: pointer ; border-bottom: 1px solid ; background-color: rgb(255 , 255 , 255)&quot;&gt;安全防范技术&lt;/a&gt;&lt;span style=&quot;color: rgb(26 , 26 , 26) ; background-color: rgb(255 , 255 , 255)&quot;&gt;、&lt;/span&gt;&lt;a href=&quot;https://link.zhihu.com/?target=https%3A//baike.baidu.com/item/%25E8%2587%25AA%25E5%258A%25A8%25E6%258E%25A7%25E5%2588%25B6%25E6%258A%2580%25E6%259C%25AF/3288199&quot; class=&quot; wrap external&quot; target=&quot;_blank&quot; style=&quot;cursor: pointer ; border-bottom: 1px solid ; background-color: rgb(255 , 255 , 255)&quot;&gt;自动控制技术&lt;/a&gt;&lt;span style=&quot;color: rgb(26 , 26 , 26) ; background-color: rgb(255 , 255 , 255)&quot;&gt;、音视频技术将家居生活有关的设施&lt;b&gt;集成&lt;/b&gt;，&lt;br&gt;&lt;b&gt;构建高效的住宅设施&lt;/b&gt;与&lt;b&gt;家庭日程事务的管理系统&lt;/b&gt;，提升家居&lt;b&gt;安全性、便利性、舒适性、艺术性&lt;/b&gt;，并&lt;b&gt;实现环保节能&lt;/b&gt;的居住环境。&lt;br&gt;&lt;br&gt;&lt;b&gt;Aqrar&amp;nbsp;home&lt;/b&gt;&lt;br&gt;&amp;nbsp; &amp;nbsp; &amp;nbsp; &amp;nbsp; &amp;nbsp; 是以各类网关型的终端设备为主线产品，也就是设备的链接节点，其产品线并未涉及特定的家电设备制造品类。&lt;br&gt;以其特点：&lt;br&gt;1、提供设备之间的通信层各类解决方案；&lt;br&gt;2、提供APP的人机交付（点击、手势、语音）；&lt;br&gt;3、安装简易、可扩展、可二次编程（待考察）；&lt;br&gt;4、基于以&lt;b&gt;服务提高用户体验&lt;/b&gt;为宗旨，（&lt;/span&gt;&lt;span style=&quot;color: rgb(26 , 26 , 26) ; background-color: rgb(255 , 255 , 255)&quot;&gt;这需要了解同行业中对智能家居产品所做的服务内容，最后自己提供具有差异化的服务内容&lt;/span&gt;&lt;span style=&quot;color: rgb(26 , 26 , 26) ; background-color: rgb(255 , 255 , 255)&quot;&gt;）&lt;br&gt;5、 如何收集行业服务内容？&lt;br&gt;&amp;nbsp; &amp;nbsp; &amp;nbsp; &amp;nbsp;①、参与别人的项目施工是最好的方法。&lt;br&gt;&amp;nbsp; &amp;nbsp; &amp;nbsp; &amp;nbsp;②、从官方了解并学习他们所提供的基本服务理念。&lt;br&gt;&amp;nbsp; &amp;nbsp; &amp;nbsp; &amp;nbsp;③、网络论坛去了解用户的吐槽点。&lt;br&gt;6、如何做好使服务变现。&lt;br&gt;&amp;nbsp; &amp;nbsp; &amp;nbsp; &amp;nbsp;①、增值服务（重点是提供服务以后对用户要产生增值，而非产生自己的营收。这个概念在传统意义上是商家站在自己的角度考虑的）&lt;br&gt;&amp;nbsp; &amp;nbsp; &amp;nbsp; &amp;nbsp;②、每提供一项服务，应该与用户充分了解需求后，才提出&lt;b&gt;不少于一个&lt;/b&gt;的解决方案，供用户以选择。&lt;br&gt;&amp;nbsp; &amp;nbsp; &amp;nbsp; &amp;nbsp;③、切记：把产品基本功能的实现服务是基本；紧接着是对产品延伸功能的演示与使用指导。。。&lt;br&gt;&lt;/span&gt;&lt;/font&gt;" style="text;html=1;align=left;verticalAlign=middle;resizable=0;points=[];autosize=1;" parent="1" vertex="1">
          <mxGeometry x="40" y="30" width="750" height="270" as="geometry" />
        </mxCell>
        <mxCell id="ntKcnVGJofI-TD8WBHXp-1" value="&lt;b&gt;以加盟Aqrar&amp;nbsp;home项目为起点创建一家以技术驱动的科技型企业&lt;br&gt;&lt;div style=&quot;text-align: left&quot;&gt;&lt;b&gt;我们所要遵循的步骤：&lt;/b&gt;&lt;/div&gt;&lt;/b&gt;" style="text;html=1;align=center;verticalAlign=middle;resizable=0;points=[];autosize=1;" vertex="1" parent="1">
          <mxGeometry x="56" y="410" width="360" height="30" as="geometry" />
        </mxCell>
        <mxCell id="ntKcnVGJofI-TD8WBHXp-4" value="&lt;b&gt;企业目标&lt;/b&gt;" style="ellipse;whiteSpace=wrap;html=1;gradientColor=#ffa500;strokeColor=#d79b00;fillColor=#CC6600;" vertex="1" parent="1">
          <mxGeometry x="40" y="640" width="90" height="60" as="geometry" />
        </mxCell>
        <mxCell id="ntKcnVGJofI-TD8WBHXp-7" value="" style="edgeStyle=orthogonalEdgeStyle;rounded=0;orthogonalLoop=1;jettySize=auto;html=1;" edge="1" parent="1" source="ntKcnVGJofI-TD8WBHXp-5" target="ntKcnVGJofI-TD8WBHXp-6">
          <mxGeometry relative="1" as="geometry" />
        </mxCell>
        <mxCell id="ntKcnVGJofI-TD8WBHXp-5" value="启动资金" style="rounded=1;whiteSpace=wrap;html=1;gradientColor=#ffd966;strokeColor=#d6b656;fillColor=#4D4D4D;" vertex="1" parent="1">
          <mxGeometry x="196" y="655" width="80" height="30" as="geometry" />
        </mxCell>
        <mxCell id="ntKcnVGJofI-TD8WBHXp-6" value="加盟Aqrar&amp;nbsp;home" style="rounded=1;whiteSpace=wrap;html=1;gradientColor=#ffa500;strokeColor=#d79b00;fillColor=#CDA2BE;" vertex="1" parent="1">
          <mxGeometry x="325" y="655" width="80" height="30" as="geometry" />
        </mxCell>
        <mxCell id="ntKcnVGJofI-TD8WBHXp-8" value="商务" style="rounded=1;whiteSpace=wrap;html=1;" vertex="1" parent="1">
          <mxGeometry x="446" y="550" width="80" height="30" as="geometry" />
        </mxCell>
        <mxCell id="ntKcnVGJofI-TD8WBHXp-48" value="" style="edgeStyle=orthogonalEdgeStyle;rounded=0;orthogonalLoop=1;jettySize=auto;html=1;strokeWidth=2;strokeColor=#CC6600;" edge="1" parent="1" source="ntKcnVGJofI-TD8WBHXp-9" target="ntKcnVGJofI-TD8WBHXp-10">
          <mxGeometry relative="1" as="geometry" />
        </mxCell>
        <mxCell id="ntKcnVGJofI-TD8WBHXp-9" value="财务" style="rounded=1;whiteSpace=wrap;html=1;gradientColor=#ea6b66;fillColor=#f8cecc;strokeColor=#b85450;" vertex="1" parent="1">
          <mxGeometry x="446" y="655" width="80" height="30" as="geometry" />
        </mxCell>
        <mxCell id="ntKcnVGJofI-TD8WBHXp-10" value="法务" style="rounded=1;whiteSpace=wrap;html=1;gradientColor=#ea6b66;fillColor=#f8cecc;strokeColor=#b85450;" vertex="1" parent="1">
          <mxGeometry x="446" y="760" width="80" height="30" as="geometry" />
        </mxCell>
        <mxCell id="ntKcnVGJofI-TD8WBHXp-22" value="" style="edgeStyle=orthogonalEdgeStyle;rounded=0;orthogonalLoop=1;jettySize=auto;html=1;strokeWidth=2;strokeColor=#CC6600;" edge="1" parent="1" source="ntKcnVGJofI-TD8WBHXp-11" target="ntKcnVGJofI-TD8WBHXp-21">
          <mxGeometry relative="1" as="geometry" />
        </mxCell>
        <mxCell id="ntKcnVGJofI-TD8WBHXp-11" value="体验馆" style="rounded=1;whiteSpace=wrap;html=1;gradientColor=#b3b3b3;fillColor=#f5f5f5;strokeColor=#666666;" vertex="1" parent="1">
          <mxGeometry x="776" y="370" width="80" height="25" as="geometry" />
        </mxCell>
        <mxCell id="ntKcnVGJofI-TD8WBHXp-13" value="销售" style="rounded=1;whiteSpace=wrap;html=1;" vertex="1" parent="1">
          <mxGeometry x="546" y="500" width="80" height="35" as="geometry" />
        </mxCell>
        <mxCell id="ntKcnVGJofI-TD8WBHXp-14" value="销售渠道" style="rounded=1;whiteSpace=wrap;html=1;gradientColor=#b3b3b3;fillColor=#f5f5f5;strokeColor=#666666;" vertex="1" parent="1">
          <mxGeometry x="666" y="400" width="80" height="25" as="geometry" />
        </mxCell>
        <mxCell id="ntKcnVGJofI-TD8WBHXp-15" value="商务合同" style="rounded=1;whiteSpace=wrap;html=1;" vertex="1" parent="1">
          <mxGeometry x="546" y="550" width="80" height="35" as="geometry" />
        </mxCell>
        <mxCell id="ntKcnVGJofI-TD8WBHXp-16" value="" style="edgeStyle=elbowEdgeStyle;elbow=horizontal;endArrow=classic;html=1;exitX=1;exitY=0.5;exitDx=0;exitDy=0;entryX=1;entryY=0.5;entryDx=0;entryDy=0;strokeWidth=2;strokeColor=#CC6600;" edge="1" parent="1" source="ntKcnVGJofI-TD8WBHXp-15" target="ntKcnVGJofI-TD8WBHXp-49">
          <mxGeometry width="50" height="50" relative="1" as="geometry">
            <mxPoint x="476" y="800" as="sourcePoint" />
            <mxPoint x="446" y="720" as="targetPoint" />
            <Array as="points">
              <mxPoint x="646" y="680" />
              <mxPoint x="436" y="650" />
              <mxPoint x="486" y="620" />
              <mxPoint x="566" y="640" />
              <mxPoint x="506" y="600" />
              <mxPoint x="436" y="590" />
              <mxPoint x="436" y="670" />
              <mxPoint x="436" y="680" />
              <mxPoint x="466" y="690" />
              <mxPoint x="606" y="710" />
            </Array>
          </mxGeometry>
        </mxCell>
        <mxCell id="ntKcnVGJofI-TD8WBHXp-17" value="" style="edgeStyle=elbowEdgeStyle;elbow=horizontal;endArrow=classic;html=1;entryX=0;entryY=0.5;entryDx=0;entryDy=0;exitX=1;exitY=0.5;exitDx=0;exitDy=0;" edge="1" parent="1" source="ntKcnVGJofI-TD8WBHXp-6" target="ntKcnVGJofI-TD8WBHXp-8">
          <mxGeometry width="50" height="50" relative="1" as="geometry">
            <mxPoint x="196" y="780" as="sourcePoint" />
            <mxPoint x="246" y="730" as="targetPoint" />
          </mxGeometry>
        </mxCell>
        <mxCell id="ntKcnVGJofI-TD8WBHXp-18" value="" style="edgeStyle=elbowEdgeStyle;elbow=horizontal;endArrow=classic;html=1;entryX=0;entryY=0.5;entryDx=0;entryDy=0;exitX=1;exitY=0.5;exitDx=0;exitDy=0;" edge="1" parent="1" source="ntKcnVGJofI-TD8WBHXp-6" target="ntKcnVGJofI-TD8WBHXp-10">
          <mxGeometry width="50" height="50" relative="1" as="geometry">
            <mxPoint x="415" y="680" as="sourcePoint" />
            <mxPoint x="456" y="600" as="targetPoint" />
          </mxGeometry>
        </mxCell>
        <mxCell id="ntKcnVGJofI-TD8WBHXp-19" value="销售资源" style="rounded=1;whiteSpace=wrap;html=1;gradientColor=#b3b3b3;fillColor=#f5f5f5;strokeColor=#666666;" vertex="1" parent="1">
          <mxGeometry x="666" y="475" width="80" height="25" as="geometry" />
        </mxCell>
        <mxCell id="ntKcnVGJofI-TD8WBHXp-20" value="服务&lt;br&gt;（售前售后）" style="rounded=1;whiteSpace=wrap;html=1;" vertex="1" parent="1">
          <mxGeometry x="546" y="600" width="80" height="30" as="geometry" />
        </mxCell>
        <mxCell id="ntKcnVGJofI-TD8WBHXp-21" value="大客户" style="rounded=1;whiteSpace=wrap;html=1;gradientColor=#b3b3b3;fillColor=#f5f5f5;strokeColor=#666666;" vertex="1" parent="1">
          <mxGeometry x="776" y="440" width="80" height="25" as="geometry" />
        </mxCell>
        <mxCell id="ntKcnVGJofI-TD8WBHXp-23" value="" style="edgeStyle=elbowEdgeStyle;elbow=horizontal;endArrow=classic;html=1;entryX=0;entryY=0.5;entryDx=0;entryDy=0;exitX=1;exitY=0.5;exitDx=0;exitDy=0;" edge="1" parent="1" source="ntKcnVGJofI-TD8WBHXp-14" target="ntKcnVGJofI-TD8WBHXp-11">
          <mxGeometry width="50" height="50" relative="1" as="geometry">
            <mxPoint x="666" y="690" as="sourcePoint" />
            <mxPoint x="707" y="585" as="targetPoint" />
          </mxGeometry>
        </mxCell>
        <mxCell id="ntKcnVGJofI-TD8WBHXp-27" value="" style="edgeStyle=elbowEdgeStyle;elbow=horizontal;endArrow=classic;html=1;entryX=0;entryY=0.5;entryDx=0;entryDy=0;exitX=1;exitY=0.5;exitDx=0;exitDy=0;" edge="1" parent="1" source="ntKcnVGJofI-TD8WBHXp-14" target="ntKcnVGJofI-TD8WBHXp-21">
          <mxGeometry width="50" height="50" relative="1" as="geometry">
            <mxPoint x="455" y="660" as="sourcePoint" />
            <mxPoint x="496" y="555" as="targetPoint" />
          </mxGeometry>
        </mxCell>
        <mxCell id="ntKcnVGJofI-TD8WBHXp-28" value="" style="edgeStyle=elbowEdgeStyle;elbow=horizontal;endArrow=classic;html=1;entryX=0;entryY=0.5;entryDx=0;entryDy=0;exitX=1;exitY=0.5;exitDx=0;exitDy=0;" edge="1" parent="1" source="ntKcnVGJofI-TD8WBHXp-13" target="ntKcnVGJofI-TD8WBHXp-14">
          <mxGeometry width="50" height="50" relative="1" as="geometry">
            <mxPoint x="465" y="730" as="sourcePoint" />
            <mxPoint x="506" y="625" as="targetPoint" />
          </mxGeometry>
        </mxCell>
        <mxCell id="ntKcnVGJofI-TD8WBHXp-29" value="" style="edgeStyle=elbowEdgeStyle;elbow=horizontal;endArrow=classic;html=1;entryX=0;entryY=0.5;entryDx=0;entryDy=0;exitX=1;exitY=0.5;exitDx=0;exitDy=0;" edge="1" parent="1" source="ntKcnVGJofI-TD8WBHXp-13" target="ntKcnVGJofI-TD8WBHXp-19">
          <mxGeometry width="50" height="50" relative="1" as="geometry">
            <mxPoint x="636" y="520" as="sourcePoint" />
            <mxPoint x="676" y="482.5" as="targetPoint" />
          </mxGeometry>
        </mxCell>
        <mxCell id="ntKcnVGJofI-TD8WBHXp-30" value="成本核算" style="rounded=1;whiteSpace=wrap;html=1;" vertex="1" parent="1">
          <mxGeometry x="546" y="640" width="80" height="30" as="geometry" />
        </mxCell>
        <mxCell id="ntKcnVGJofI-TD8WBHXp-31" value="利润流向" style="rounded=1;whiteSpace=wrap;html=1;gradientColor=#ea6b66;fillColor=#f8cecc;strokeColor=#b85450;" vertex="1" parent="1">
          <mxGeometry x="546" y="710" width="80" height="30" as="geometry" />
        </mxCell>
        <mxCell id="ntKcnVGJofI-TD8WBHXp-32" value="" style="edgeStyle=elbowEdgeStyle;elbow=horizontal;endArrow=classic;html=1;entryX=0;entryY=0.5;entryDx=0;entryDy=0;exitX=1;exitY=0.5;exitDx=0;exitDy=0;" edge="1" parent="1" source="ntKcnVGJofI-TD8WBHXp-8" target="ntKcnVGJofI-TD8WBHXp-13">
          <mxGeometry width="50" height="50" relative="1" as="geometry">
            <mxPoint x="415" y="680" as="sourcePoint" />
            <mxPoint x="456" y="575" as="targetPoint" />
          </mxGeometry>
        </mxCell>
        <mxCell id="ntKcnVGJofI-TD8WBHXp-33" value="" style="edgeStyle=elbowEdgeStyle;elbow=horizontal;endArrow=classic;html=1;entryX=0;entryY=0.5;entryDx=0;entryDy=0;exitX=1;exitY=0.5;exitDx=0;exitDy=0;" edge="1" parent="1" source="ntKcnVGJofI-TD8WBHXp-8" target="ntKcnVGJofI-TD8WBHXp-20">
          <mxGeometry width="50" height="50" relative="1" as="geometry">
            <mxPoint x="425" y="690" as="sourcePoint" />
            <mxPoint x="466" y="585" as="targetPoint" />
          </mxGeometry>
        </mxCell>
        <mxCell id="ntKcnVGJofI-TD8WBHXp-34" value="投融资" style="rounded=1;whiteSpace=wrap;html=1;gradientColor=#ffa500;fillColor=#ffcd28;strokeColor=#d79b00;" vertex="1" parent="1">
          <mxGeometry x="196" y="905" width="80" height="30" as="geometry" />
        </mxCell>
        <mxCell id="ntKcnVGJofI-TD8WBHXp-36" value="" style="edgeStyle=elbowEdgeStyle;elbow=horizontal;endArrow=classic;html=1;entryX=0;entryY=0.5;entryDx=0;entryDy=0;exitX=1;exitY=0.5;exitDx=0;exitDy=0;" edge="1" parent="1" source="ntKcnVGJofI-TD8WBHXp-9" target="ntKcnVGJofI-TD8WBHXp-30">
          <mxGeometry width="50" height="50" relative="1" as="geometry">
            <mxPoint x="415" y="680" as="sourcePoint" />
            <mxPoint x="456" y="575" as="targetPoint" />
          </mxGeometry>
        </mxCell>
        <mxCell id="ntKcnVGJofI-TD8WBHXp-37" value="" style="edgeStyle=elbowEdgeStyle;elbow=horizontal;endArrow=classic;html=1;entryX=0;entryY=0.5;entryDx=0;entryDy=0;exitX=1;exitY=0.5;exitDx=0;exitDy=0;" edge="1" parent="1" source="ntKcnVGJofI-TD8WBHXp-9" target="ntKcnVGJofI-TD8WBHXp-31">
          <mxGeometry width="50" height="50" relative="1" as="geometry">
            <mxPoint x="536" y="680" as="sourcePoint" />
            <mxPoint x="556" y="665" as="targetPoint" />
          </mxGeometry>
        </mxCell>
        <mxCell id="ntKcnVGJofI-TD8WBHXp-39" value="人工" style="rounded=1;whiteSpace=wrap;html=1;gradientColor=#ffd966;fillColor=#fff2cc;strokeColor=#d6b656;" vertex="1" parent="1">
          <mxGeometry x="716" y="665" width="70" height="20" as="geometry" />
        </mxCell>
        <mxCell id="ntKcnVGJofI-TD8WBHXp-40" value="物料及损耗" style="rounded=1;whiteSpace=wrap;html=1;gradientColor=#ffd966;fillColor=#fff2cc;strokeColor=#d6b656;" vertex="1" parent="1">
          <mxGeometry x="716" y="693" width="70" height="20" as="geometry" />
        </mxCell>
        <mxCell id="ntKcnVGJofI-TD8WBHXp-41" value="租金及物流" style="rounded=1;whiteSpace=wrap;html=1;gradientColor=#ffd966;fillColor=#fff2cc;strokeColor=#d6b656;" vertex="1" parent="1">
          <mxGeometry x="716" y="745" width="70" height="20" as="geometry" />
        </mxCell>
        <mxCell id="ntKcnVGJofI-TD8WBHXp-42" value="" style="edgeStyle=elbowEdgeStyle;elbow=horizontal;endArrow=classic;html=1;entryX=0;entryY=0.5;entryDx=0;entryDy=0;exitX=1;exitY=0.5;exitDx=0;exitDy=0;" edge="1" parent="1" source="ntKcnVGJofI-TD8WBHXp-30" target="ntKcnVGJofI-TD8WBHXp-39">
          <mxGeometry width="50" height="50" relative="1" as="geometry">
            <mxPoint x="415" y="680" as="sourcePoint" />
            <mxPoint x="456" y="575" as="targetPoint" />
          </mxGeometry>
        </mxCell>
        <mxCell id="ntKcnVGJofI-TD8WBHXp-43" value="" style="edgeStyle=elbowEdgeStyle;elbow=horizontal;endArrow=classic;html=1;entryX=0;entryY=0.5;entryDx=0;entryDy=0;exitX=1;exitY=0.5;exitDx=0;exitDy=0;" edge="1" parent="1" source="ntKcnVGJofI-TD8WBHXp-30" target="ntKcnVGJofI-TD8WBHXp-41">
          <mxGeometry width="50" height="50" relative="1" as="geometry">
            <mxPoint x="636" y="665" as="sourcePoint" />
            <mxPoint x="676" y="630" as="targetPoint" />
          </mxGeometry>
        </mxCell>
        <mxCell id="ntKcnVGJofI-TD8WBHXp-45" value="研发生产" style="rounded=1;whiteSpace=wrap;html=1;gradientColor=#ffa500;fillColor=#ffcd28;strokeColor=#d79b00;" vertex="1" parent="1">
          <mxGeometry x="196" y="830" width="80" height="30" as="geometry" />
        </mxCell>
        <mxCell id="ntKcnVGJofI-TD8WBHXp-49" value="合同纠纷" style="rounded=1;whiteSpace=wrap;html=1;gradientColor=#ea6b66;fillColor=#f8cecc;strokeColor=#b85450;" vertex="1" parent="1">
          <mxGeometry x="546" y="745" width="80" height="30" as="geometry" />
        </mxCell>
        <mxCell id="ntKcnVGJofI-TD8WBHXp-50" value="经济纠纷" style="rounded=1;whiteSpace=wrap;html=1;gradientColor=#ea6b66;fillColor=#f8cecc;strokeColor=#b85450;" vertex="1" parent="1">
          <mxGeometry x="546" y="800" width="80" height="30" as="geometry" />
        </mxCell>
        <mxCell id="ntKcnVGJofI-TD8WBHXp-51" value="" style="edgeStyle=elbowEdgeStyle;elbow=horizontal;endArrow=classic;html=1;entryX=0;entryY=0.5;entryDx=0;entryDy=0;exitX=1;exitY=0.5;exitDx=0;exitDy=0;" edge="1" parent="1" source="ntKcnVGJofI-TD8WBHXp-10" target="ntKcnVGJofI-TD8WBHXp-49">
          <mxGeometry width="50" height="50" relative="1" as="geometry">
            <mxPoint x="536" y="680" as="sourcePoint" />
            <mxPoint x="556" y="725" as="targetPoint" />
          </mxGeometry>
        </mxCell>
        <mxCell id="ntKcnVGJofI-TD8WBHXp-52" value="" style="edgeStyle=elbowEdgeStyle;elbow=horizontal;endArrow=classic;html=1;entryX=0;entryY=0.5;entryDx=0;entryDy=0;exitX=1;exitY=0.5;exitDx=0;exitDy=0;" edge="1" parent="1" source="ntKcnVGJofI-TD8WBHXp-10" target="ntKcnVGJofI-TD8WBHXp-50">
          <mxGeometry width="50" height="50" relative="1" as="geometry">
            <mxPoint x="546" y="690" as="sourcePoint" />
            <mxPoint x="566" y="735" as="targetPoint" />
          </mxGeometry>
        </mxCell>
        <mxCell id="ntKcnVGJofI-TD8WBHXp-57" value="" style="edgeStyle=elbowEdgeStyle;elbow=horizontal;endArrow=classic;html=1;exitX=1;exitY=0.5;exitDx=0;exitDy=0;strokeWidth=2;strokeColor=#CC6600;entryX=1;entryY=0.5;entryDx=0;entryDy=0;" edge="1" parent="1" source="ntKcnVGJofI-TD8WBHXp-31" target="ntKcnVGJofI-TD8WBHXp-68">
          <mxGeometry width="50" height="50" relative="1" as="geometry">
            <mxPoint x="426" y="680" as="sourcePoint" />
            <mxPoint x="276" y="845" as="targetPoint" />
            <Array as="points">
              <mxPoint x="666" y="800" />
              <mxPoint x="646" y="860" />
            </Array>
          </mxGeometry>
        </mxCell>
        <mxCell id="ntKcnVGJofI-TD8WBHXp-59" value="" style="edgeStyle=elbowEdgeStyle;elbow=horizontal;endArrow=classic;html=1;exitX=1;exitY=0.5;exitDx=0;exitDy=0;strokeWidth=2;strokeColor=#CC6600;entryX=1;entryY=0.5;entryDx=0;entryDy=0;" edge="1" parent="1" source="ntKcnVGJofI-TD8WBHXp-31" target="ntKcnVGJofI-TD8WBHXp-68">
          <mxGeometry width="50" height="50" relative="1" as="geometry">
            <mxPoint x="636" y="725" as="sourcePoint" />
            <mxPoint x="276" y="920" as="targetPoint" />
            <Array as="points">
              <mxPoint x="666" y="790" />
              <mxPoint x="646" y="750" />
              <mxPoint x="186" y="860" />
            </Array>
          </mxGeometry>
        </mxCell>
        <mxCell id="ntKcnVGJofI-TD8WBHXp-60" value="" style="edgeStyle=elbowEdgeStyle;elbow=horizontal;endArrow=classic;html=1;entryX=0;entryY=0.5;entryDx=0;entryDy=0;exitX=1;exitY=0.5;exitDx=0;exitDy=0;" edge="1" parent="1" source="ntKcnVGJofI-TD8WBHXp-4" target="ntKcnVGJofI-TD8WBHXp-5">
          <mxGeometry width="50" height="50" relative="1" as="geometry">
            <mxPoint x="415" y="680" as="sourcePoint" />
            <mxPoint x="456" y="575" as="targetPoint" />
          </mxGeometry>
        </mxCell>
        <mxCell id="ntKcnVGJofI-TD8WBHXp-70" value="销售额" style="rounded=1;whiteSpace=wrap;html=1;gradientColor=#b3b3b3;fillColor=#f5f5f5;strokeColor=#666666;" vertex="1" parent="1">
          <mxGeometry x="666" y="525" width="80" height="25" as="geometry" />
        </mxCell>
        <mxCell id="ntKcnVGJofI-TD8WBHXp-71" value="" style="edgeStyle=elbowEdgeStyle;elbow=horizontal;endArrow=classic;html=1;entryX=0;entryY=0.5;entryDx=0;entryDy=0;exitX=1;exitY=0.5;exitDx=0;exitDy=0;" edge="1" parent="1" source="ntKcnVGJofI-TD8WBHXp-13" target="ntKcnVGJofI-TD8WBHXp-70">
          <mxGeometry width="50" height="50" relative="1" as="geometry">
            <mxPoint x="626" y="520" as="sourcePoint" />
            <mxPoint x="676" y="497.5" as="targetPoint" />
          </mxGeometry>
        </mxCell>
        <mxCell id="ntKcnVGJofI-TD8WBHXp-75" value="" style="edgeStyle=elbowEdgeStyle;elbow=horizontal;endArrow=classic;html=1;entryX=0.5;entryY=0;entryDx=0;entryDy=0;strokeWidth=2;strokeColor=#CC6600;" edge="1" parent="1" target="ntKcnVGJofI-TD8WBHXp-9">
          <mxGeometry width="50" height="50" relative="1" as="geometry">
            <mxPoint x="666" y="538" as="sourcePoint" />
            <mxPoint x="636" y="770" as="targetPoint" />
            <Array as="points">
              <mxPoint x="486" y="590" />
              <mxPoint x="656" y="690" />
              <mxPoint x="446" y="660" />
              <mxPoint x="496" y="630" />
              <mxPoint x="576" y="650" />
              <mxPoint x="516" y="610" />
              <mxPoint x="446" y="600" />
              <mxPoint x="446" y="680" />
              <mxPoint x="446" y="690" />
              <mxPoint x="476" y="700" />
              <mxPoint x="616" y="720" />
            </Array>
          </mxGeometry>
        </mxCell>
        <mxCell id="ntKcnVGJofI-TD8WBHXp-77" value="&lt;b&gt;形成企业的市场资源&lt;/b&gt;" style="text;html=1;align=center;verticalAlign=middle;resizable=0;points=[];autosize=1;" vertex="1" parent="1">
          <mxGeometry x="656" y="350" width="120" height="20" as="geometry" />
        </mxCell>
        <mxCell id="ntKcnVGJofI-TD8WBHXp-81" value="销售" style="rounded=1;whiteSpace=wrap;html=1;gradientColor=#ea6b66;fillColor=#f8cecc;strokeColor=#b85450;" vertex="1" parent="1">
          <mxGeometry x="546" y="500" width="80" height="35" as="geometry" />
        </mxCell>
        <mxCell id="ntKcnVGJofI-TD8WBHXp-82" value="商务" style="rounded=1;whiteSpace=wrap;html=1;gradientColor=#ea6b66;fillColor=#f8cecc;strokeColor=#b85450;" vertex="1" parent="1">
          <mxGeometry x="446" y="550" width="80" height="30" as="geometry" />
        </mxCell>
        <mxCell id="ntKcnVGJofI-TD8WBHXp-83" value="商务合同" style="rounded=1;whiteSpace=wrap;html=1;gradientColor=#ea6b66;fillColor=#f8cecc;strokeColor=#b85450;" vertex="1" parent="1">
          <mxGeometry x="546" y="550" width="80" height="35" as="geometry" />
        </mxCell>
        <mxCell id="ntKcnVGJofI-TD8WBHXp-84" value="服务&lt;br&gt;（售前售后）" style="rounded=1;whiteSpace=wrap;html=1;gradientColor=#ea6b66;fillColor=#f8cecc;strokeColor=#b85450;" vertex="1" parent="1">
          <mxGeometry x="546" y="600" width="80" height="30" as="geometry" />
        </mxCell>
        <mxCell id="ntKcnVGJofI-TD8WBHXp-85" value="成本核算" style="rounded=1;whiteSpace=wrap;html=1;gradientColor=#ea6b66;fillColor=#f8cecc;strokeColor=#b85450;" vertex="1" parent="1">
          <mxGeometry x="546" y="640" width="80" height="30" as="geometry" />
        </mxCell>
        <mxCell id="ntKcnVGJofI-TD8WBHXp-86" value="&lt;b&gt;形成企业的基础框&lt;/b&gt;" style="text;html=1;align=center;verticalAlign=middle;resizable=0;points=[];autosize=1;" vertex="1" parent="1">
          <mxGeometry x="426" y="475" width="110" height="20" as="geometry" />
        </mxCell>
        <mxCell id="ntKcnVGJofI-TD8WBHXp-87" value="" style="edgeStyle=elbowEdgeStyle;elbow=horizontal;endArrow=classic;html=1;entryX=0.5;entryY=1;entryDx=0;entryDy=0;exitX=0;exitY=0.5;exitDx=0;exitDy=0;" edge="1" parent="1" source="ntKcnVGJofI-TD8WBHXp-68" target="ntKcnVGJofI-TD8WBHXp-4">
          <mxGeometry width="50" height="50" relative="1" as="geometry">
            <mxPoint x="415" y="680" as="sourcePoint" />
            <mxPoint x="456" y="785" as="targetPoint" />
            <Array as="points">
              <mxPoint x="85" y="810" />
            </Array>
          </mxGeometry>
        </mxCell>
        <mxCell id="ntKcnVGJofI-TD8WBHXp-90" value="&lt;b&gt;形成企业解决问题的能力&lt;/b&gt;" style="text;html=1;align=center;verticalAlign=middle;resizable=0;points=[];autosize=1;" vertex="1" parent="1">
          <mxGeometry x="656" y="630" width="150" height="20" as="geometry" />
        </mxCell>
      </root>
    </mxGraphModel>
  </diagram>
</mxfile>
